#!OML:ASF E:\emotionWalksFemale\Project 1\Capture day 1\Session 1\Female1.ASF
:FULLY-SPECIFIED
:DEGREES
1212
root 10.4384 15.366 -35.1045 9.06528 -72.7485 -8.10594
lowerback 7.51263 0.751011 -0.0753151
upperback 0.814141 1.03307 1.78869
thorax -3.40515 0.514538 1.78528
lowerneck -5.72357 5.35627 6.01341
upperneck 8.33281 7.52089 -9.84024
head 4.0249 3.42805 -3.57536
rclavicle 1.27719e-014 2.04748e-014
rhumerus -28.3518 7.97013 -80.2537
rradius 30.0148
rwrist 18.6296
rhand -8.43206 -52.8825
rfingers 7.12502
rthumb 17.4931 -82.1154
lclavicle 1.27719e-014 2.04748e-014
lhumerus -34.7211 6.89363 84.0804
lradius 38.6797
lwrist -12.6802
lhand -7.70468 -34.6611
lfingers 7.12502
lthumb 18.193 -5.49187
rfemur -9.93053 -1.18345 29.7814
rtibia 26.0677
rfoot -37.6059 -45.4927
rtoes 36.2015
lfemur -12.1281 4.04153 -22.1675
ltibia 35.9641
lfoot -30.7432 20.2158
ltoes 3.96024
1213
root 10.4491 15.3564 -35.0967 8.15715 -72.0728 -7.25199
lowerback 7.59142 0.887373 0.0971155
upperback 0.890589 1.22264 1.62791
thorax -3.36891 0.604986 1.5015
lowerneck -5.63848 5.40206 6.08
upperneck 8.07598 7.57784 -9.99757
head 3.94662 3.45917 -3.63431
rclavicle -5.57591e-014 7.95139e-016
rhumerus -28.3332 7.83174 -80.5063
rradius 30.1642
rwrist 18.9328
rhand -8.7787 -53.7962
rfingers 7.12502
rthumb 17.1594 -83.0585
lclavicle -5.57591e-014 7.95139e-016
lhumerus -35.0083 5.81134 84.2478
lradius 39.4322
lwrist -11.9028
lhand -8.36628 -34.1691
lfingers 7.12502
lthumb 17.5564 -4.94182
rfemur -10.1095 -1.58284 29.5481
rtibia 26.491
rfoot -37.6384 -45.6411
rtoes 36.2669
lfemur -11.7668 3.06078 -22.4152
ltibia 35.3331
lfoot -30.8979 20.3073
ltoes 2.49411
1214
root 10.4653 15.3535 -35.0962 7.86654 -71.3582 -7.16166
lowerback 7.87123 0.993279 0.224274
upperback 0.978225 1.37649 1.72144
thorax -3.43787 0.678768 1.5072
lowerneck -5.38824 5.39313 5.88526
upperneck 7.68764 7.58577 -10.2603
head 3.79176 3.46014 -3.69173
rclavicle -1.47349e-014 2.78299e-015
rhumerus -28.3322 8.18944 -80.6508
rradius 30.4054
rwrist 18.4703
rhand -8.93786 -53.8902
rfingers 7.12502
rthumb 17.0063 -83.1658
lclavicle -1.47349e-014 2.78299e-015
lhumerus -34.4173 5.63201 84.4521
lradius 39.2147
lwrist -11.6389
lhand -8.5553 -33.9193
lfingers 7.12502
lthumb 17.3745 -4.6758
rfemur -10.1266 -2.08957 29.5877
rtibia 26.9014
rfoot -38.4318 -45.2429
rtoes 37.2305
lfemur -11.3095 2.26754 -22.3848
ltibia 34.7199
lfoot -30.7036 20.5226
ltoes 1.63755
1215
root 10.4723 15.3562 -35.103 6.86938 -70.6584 -6.03885
lowerback 7.81888 0.987796 -0.263384
upperback 1.03159 1.33028 1.83984
thorax -3.36628 0.662392 1.91038
lowerneck -5.29058 5.54738 5.57846
upperneck 7.40322 7.82741 -10.5803
head 3.71184 3.56421 -3.72901
rclavicle -2.5842e-015 -6.36111e-015
rhumerus -28.2001 9.07558 -80.881
rradius 30.6386
rwrist 17.6151
rhand -8.90224 -53.6127
rfingers 7.12502
rthumb 17.0405 -82.8853
lclavicle -2.5842e-015 -6.36111e-015
lhumerus -32.304 6.45694 84.551
lradius 37.3698
lwrist -12.1188
lhand -8.57239 -34.368
lfingers 7.12502
lthumb 17.358 -5.12308
rfemur -10.424 -2.39114 29.2692
rtibia 27.3234
rfoot -39.7095 -44.6926
rtoes 38.5615
lfemur -11.2617 1.69097 -22.7111
ltibia 34.2527
lfoot -30.4213 20.5027
ltoes 1.63541
1216
root 10.4817 15.3577 -35.1065 5.99243 -69.963 -5.19024
lowerback 7.94439 0.99636 -0.472486
upperback 1.13051 1.32137 1.81887
thorax -3.3378 0.659336 2.00631
lowerneck -5.30244 5.68341 5.54372
upperneck 7.23729 8.02486 -10.8629
head 3.69135 3.6515 -3.79811
rclavicle -8.07314e-014 -2.38542e-015
rhumerus -27.9542 9.43825 -81.1887
rradius 30.7536
rwrist 17.3125
rhand -9.01181 -53.8569
rfingers 7.12502
rthumb 16.9351 -83.1386
lclavicle -8.07314e-014 -2.38542e-015
lhumerus -31.9468 7.20969 84.4511
lradius 37.3394
lwrist -12.811
lhand -8.23193 -35.082
lfingers 7.12502
lthumb 17.6857 -5.86632
rfemur -10.5843 -3.04855 28.9934
rtibia 27.6716
rfoot -39.6074 -44.5929
rtoes 38.5475
lfemur -11.1295 1.11624 -22.9844
ltibia 33.889
lfoot -30.2363 20.9256
ltoes -0.783733
1217
root 10.4921 15.362 -35.1043 5.21482 -69.2645 -4.34895
lowerback 7.95023 0.980538 -0.568036
upperback 1.20668 1.28843 1.74687
thorax -3.26129 0.642808 1.98948
lowerneck -5.37871 5.87888 5.43866
upperneck 7.17132 8.29995 -10.9668
head 3.70818 3.77885 -3.79324
rclavicle -2.26615e-014 -1.98785e-015
rhumerus -27.7737 9.86613 -81.5645
rradius 30.9028
rwrist 16.8199
rhand -8.98131 -54.0915
rfingers 7.12502
rthumb 16.9644 -83.3707
lclavicle -2.26615e-014 -1.98785e-015
lhumerus -31.384 6.63401 84.6195
lradius 37.0113
lwrist -11.8824
lhand -8.37043 -35.2346
lfingers 7.12502
lthumb 17.5524 -6.00692
rfemur -10.8804 -3.65834 28.6921
rtibia 28.1065
rfoot -39.5757 -44.6889
rtoes 38.8123
lfemur -11.0744 0.46432 -23.2857
ltibia 33.5237
lfoot -29.7076 20.5344
ltoes -0.504936
1218
root 10.5028 15.3673 -35.0993 4.71083 -68.5457 -3.8717
lowerback 8.10741 0.952156 -0.547771
upperback 1.2336 1.25105 1.71851
thorax -3.31848 0.623748 1.95084
lowerneck -5.46215 6.12374 5.26322
upperneck 7.1602 8.64012 -10.9228
head 3.73841 3.94137 -3.72642
rclavicle -1.37658e-014 -9.93923e-015
rhumerus -27.7815 10.3856 -81.9901
rradius 31.1094
rwrist 16.2297
rhand -8.94931 -54.3732
rfingers 7.12502
rthumb 16.9952 -83.6497
lclavicle -1.37658e-014 -9.93923e-015
lhumerus -31.2773 6.87565 84.5248
lradius 37.1506
lwrist -11.8657
lhand -8.3765 -35.1469
lfingers 7.12502
lthumb 17.5465 -5.91877
rfemur -11.0707 -4.05157 28.5098
rtibia 28.5251
rfoot -40.1138 -44.8158
rtoes 39.6551
lfemur -10.9653 -0.177437 -23.4531
ltibia 33.2219
lfoot -29.015 20.9635
ltoes -2.66498
